<svg xmlns="http://www.w3.org/2000/svg" xmlns:xlink="http://www.w3.org/1999/xlink" width="100%" height="100%" viewBox="0 0 1220 850" preserveAspectRatio="xMinYMin meet" ><rect id="svgEditorBackground" x="0" y="0" width="1220" height="850" style="fill: none; stroke: none;"/><rect x="57.09" y="204.34" style="fill:white;stroke:black;stroke-width:1px" id="e2_rectangle" width="918.51" height="347.5697865353"/><line id="e6_line" x1="516.03" y1="205.18" x2="517.12" y2="553.18" style="stroke:black;fill:none;stroke-width:1px"/><text style="fill:black;font-family:Arial;font-size:20px" x="474.834" y="233.371" id="e11_texte"><tspan x="481.339">20</tspan></text><text style="fill:black;font-family:Arial;font-size:20px" x="929.075" y="402.488" id="e13_texte">20</text><text style="fill:black;font-family:Arial;font-size:20px" x="85.64" y="401.4" id="e14_texte"></text><text style="fill:black;font-family:Arial;font-size:20px" x="84.56" y="415.5" id="e15_texte">-20</text><text style="fill:black;font-family:Arial;font-size:20px" x="470.5" y="534.75" id="e16_texte">-20</text><text style="fill:black;font-family:Arial;font-size:20px" x="526.877" y="231.198" id="e17_texte">y</text><text style="fill:black;font-family:Arial;font-size:20px" x="934.502" y="361.291" id="e18_texte">x</text><line id="e20_line" x1="501.654000" y1="354.295000" x2="530.904000" y2="354.299000" style="stroke:black;fill:none;stroke-width:1px"/><path d="M501.650444,327.216146h33.59" style="fill:none;stroke:black;stroke-width:1px" id="e22_pathH"/><path d="M57.151,377.05h917.979" style="fill:none;stroke:black;stroke-width:1px" id="e24_pathH"/><path d="M542.518753,392.500888v-22.77" style="fill:none;stroke:black;stroke-width:1px" id="e27_pathV"/><path d="M567.481563,391.422129v-23.85" style="fill:none;stroke:black;stroke-width:1px" id="e29_pathV"/><line id="e30_line" x1="516.49" y1="377.333" x2="599.979" y2="324.201" style="stroke:black;fill:none;stroke-width:1px"/><text style="fill:black;font-family:Arial;font-size:20px" x="580.472" y="309.024" id="e31_texte"><tspan x="588.065">2v1</tspan></text><path d="M590.5,367.3v24.92" style="fill:none;stroke:black;stroke-width:1px" id="e35_pathV"/><line id="e36_line" x1="517.904" y1="377.047" x2="735.68" y2="235.12" style="stroke:black;fill:none;stroke-width:1px"/><text style="fill:black;font-family:Arial;font-size:20px" x="686.931" y="230.781" id="e37_texte">5v1</text></svg>